<svg xmlns="http://www.w3.org/2000/svg" width="26" height="26">  <path fill="#8C9BAE" fill-rule="evenodd" d="M13 26c7.18 0 13-5.82 13-13S20.18 0 13 0 0 5.82 0 13s5.82 13 13 13zm1.94-15.76h3.32V9.2h-3.32v1.04zm3 3.13H15.3s.15-1.3 1.4-1.3c1.24 0 1.22 1.3 1.22 1.3zm-1.27-2.52c-3.1 0-3.1 3.23-3.1 3.23s-.2 3.2 3.1 3.2c0 0 2.76.17 2.76-2.23H18s.06.9-1.28.9c0 0-1.42.1-1.42-1.45h4.18s.46-3.65-2.8-3.65zm-6.1 4.77h-2.2v-2.25h2.34s.88 0 .88 1.16c0 .98-.64 1.08-.97 1.1zm-2.2-5.42h2.34s.6 0 .6.88c0 .87-.34 1-.72 1h-2.2V10.2zm3.4 2.35s1.22-.1 1.22-1.6-1-2.24-2.3-2.24H6.5v8.4h4.2s2.56.1 2.56-2.44c0 0 .1-2.08-1.5-2.08z" opacity=".8"/></svg>