<svg xmlns="http://www.w3.org/2000/svg" width="26" height="26">  <path fill="#8C9BAE" fill-rule="evenodd" d="M10.6 14.56h-.22c-.6.05-1.16.28-1.56.64-.4.36-.6.8-.57 1.27.06.97 1.1 1.53 2.35 1.44 1.24 0 2.06-.8 2-1.7-.06-.9-.85-1.6-2-1.6zM19.12 13h-2.05v2.04h-1.3V13h-2.05v-1.3h2.05V9.62h1.3v2.06h2.05V13zm-6.88 5.58c-.82.4-1.7.44-2.04.44h-.16c-.53 0-3.17-.12-3.17-2.53 0-2.4 2.87-2.6 3.76-2.6h.02c-.5-.7-.4-1.4-.4-1.4h-.2c-.33 0-.97-.1-1.52-.4-.67-.5-1-1.2-1-2.2 0-2.9 3.14-3 3.17-3h3.15V7c0 .36-.63.43-1.07.48-.14.03-.44.06-.52.1.8.42.93 1.1.93 2.1 0 1.12-.5 1.72-1 2.15-.3.26-.5.46-.5.73 0 .25.3.53.7.85.6.6 1.4 1.3 1.4 2.5 0 1.3-.6 2.2-1.6 2.7zM13 0C5.82 0 0 5.82 0 13s5.82 13 13 13 13-5.82 13-13S20.18 0 13 0zm-1.22 9.32c-.33-1.15-.86-1.5-1.68-1.5-.1 0-.18.02-.26.05-.36.1-.64.4-.8.83-.16.45-.17.92-.03 1.45.3.95 1 1.64 1.6 1.64.1 0 .2-.1.3-.1.8-.2 1.2-1.4.9-2.5z" opacity=".8"/></svg>