<svg xmlns="http://www.w3.org/2000/svg" width="26" height="26">  <path fill="#8C9BAE" fill-rule="evenodd" d="M18.3 10.65v.33c0 3.38-2.58 7.3-7.3 7.3-1.44-.02-2.78-.44-3.9-1.17.18.05.4.06.6.06 1.2 0 2.3-.4 3.17-1.1-1.1-.02-2.06-.76-2.4-1.77.17.02.33.03.5.03.23 0 .46-.03.67-.1-1.17-.22-2.05-1.26-2.05-2.5v-.03c.32.18.72.3 1.14.3-.7-.45-1.15-1.23-1.15-2.12 0-.47.12-.9.34-1.3 1.27 1.56 3.15 2.58 5.28 2.7-.04-.2-.06-.4-.06-.6 0-1.4 1.14-2.56 2.55-2.56.75 0 1.4.3 1.88.8.58-.1 1.13-.32 1.62-.6-.2.6-.6 1.1-1.13 1.4.5-.05 1-.2 1.46-.4-.34.52-.77.97-1.27 1.33zM13 0C5.82 0 0 5.82 0 13s5.82 13 13 13 13-5.82 13-13S20.18 0 13 0z" opacity=".8"/></svg>